<svg xmlns="http://www.w3.org/2000/svg" width="512" height="512" viewBox="0 0 512 512">
  <defs>
    <linearGradient id="nexus-grad" x1="0%" y1="0%" x2="100%" y2="100%">
      <stop offset="0%" style="stop-color:#1e293b;stop-opacity:1" />
      <stop offset="100%" style="stop-color:#0f172a;stop-opacity:1" />
    </linearGradient>
  </defs>
  <rect width="512" height="512" rx="128" fill="url(#nexus-grad)"/>
  <g transform="translate(96, 96) scale(13.33)">
    <path d="M12 2a10 10 0 1 0 10 10A10 10 0 0 0 12 2zm0 18a8 8 0 1 1 8-8 8 8 0 0 1-8 8z" fill="white" opacity="0.1"/>
    <circle cx="12" cy="12" r="10" stroke="white" stroke-width="1.5" fill="none" />
    <line x1="2" y1="12" x2="22" y2="12" stroke="white" stroke-width="1.5" />
    <path d="M12 2a15.3 15.3 0 0 1 4 10 15.3 15.3 0 0 1-4 10 15.3 15.3 0 0 1-4-10 15.3 15.3 0 0 1 4-10z" stroke="white" stroke-width="1.5" fill="none" />
  </g>
</svg>
